<svg xmlns="http://www.w3.org/2000/svg" version="1.1" xmlns:xlink="http://www.w3.org/1999/xlink" xmlns:svgjs="http://svgjs.dev/svgjs" width="1440" height="560" preserveAspectRatio="none" viewBox="0 0 1440 560"><g mask="url(&quot;#SvgjsMask1096&quot;)" fill="none"><rect width="1440" height="560" x="0" y="0" fill="#0e2a47"></rect><path d="M -111.94577873832498,356 C -39.95,323.4 104.05,185.4 248.05422126167502,193 C 392.05,200.6 464.05,389.4 608.054221261675,394 C 752.05,398.6 824.05,233.4 968.054221261675,216 C 1112.05,198.6 1184.05,300.2 1328.0542212616751,307 C 1472.05,313.8 1665.67,247 1688.0542212616751,250 C 1710.44,253 1489.61,307.6 1440,322" stroke="rgba(51, 121, 194, 0.58)" stroke-width="2"></path><path d="M -489.283839063379,401 C -417.28,374.8 -273.28,261.6 -129.28383906337896,270 C 14.72,278.4 86.72,479.4 230.71616093662104,443 C 374.72,406.6 446.72,101.2 590.716160936621,88 C 734.72,74.8 806.72,368 950.716160936621,377 C 1094.72,386 1212.86,147.8 1310.716160936621,133 C 1408.57,118.2 1414.14,269 1440,303" stroke="rgba(51, 121, 194, 0.58)" stroke-width="2"></path><path d="M -45.46262777956895,130 C 26.54,185.6 170.54,411.8 314.53737222043105,408 C 458.54,404.2 530.54,101.8 674.537372220431,111 C 818.54,120.2 890.54,423 1034.537372220431,454 C 1178.54,485 1250.54,294 1394.537372220431,266 C 1538.54,238 1745.44,329 1754.537372220431,314 C 1763.63,299 1502.91,215.6 1440,191" stroke="rgba(51, 121, 194, 0.58)" stroke-width="2"></path><path d="M -277.6235333955682,133 C -205.62,168.2 -61.62,305.8 82.37646660443183,309 C 226.38,312.2 298.38,128.8 442.3764666044318,149 C 586.38,169.2 658.38,410.2 802.3764666044318,410 C 946.38,409.8 1018.38,134 1162.376466604432,148 C 1306.38,162 1466.85,494 1522.376466604432,480 C 1577.9,466 1456.48,158.4 1440,78" stroke="rgba(51, 121, 194, 0.58)" stroke-width="2"></path><path d="M -263.0041772705553,150 C -191,206 -47,406.2 96.99582272944467,430 C 241,453.8 313,284.8 456.9958227294447,269 C 601,253.2 673,393 816.9958227294446,351 C 961,309 1033,72 1176.9958227294446,59 C 1321,46 1484.39,258.4 1536.9958227294446,286 C 1589.6,313.6 1459.4,214.8 1440,197" stroke="rgba(51, 121, 194, 0.58)" stroke-width="2"></path></g><defs><mask id="SvgjsMask1096"><rect width="1440" height="560" fill="#ffffff"></rect></mask></defs></svg>