<svg xmlns="http://www.w3.org/2000/svg" version="1.1" xmlns:xlink="http://www.w3.org/1999/xlink" xmlns:svgjs="http://svgjs.dev/svgjs" width="1440" height="560" preserveAspectRatio="none" viewBox="0 0 1440 560"><g mask="url(&quot;#SvgjsMask1070&quot;)" fill="none"><rect width="1440" height="560" x="0" y="0" fill="rgba(17, 23, 31, 1)"></rect><path d="M0,572.129C117.386,575.009,242.198,593.942,342.982,533.69C444.802,472.819,485.465,351.764,542.55,247.774C604.312,135.264,698.032,28.851,690.442,-99.271C682.695,-230.032,606.937,-356.54,502.096,-435.068C403.893,-508.624,270.89,-498.771,148.368,-505.294C50.388,-510.51,-40.619,-483.023,-137.75,-469.133C-254.266,-452.471,-383.837,-484.051,-479.518,-415.505C-581.286,-342.598,-642.968,-218.919,-660.114,-94.91C-677.22,28.812,-632.124,151.649,-573.157,261.752C-516.776,367.027,-437.345,460.252,-332.332,517.119C-231.554,571.693,-114.572,569.318,0,572.129" fill="#0b0f14"></path><path d="M1440 946.482C1512.016 944.99 1580.663 910.384 1634.232 862.23 1683.458 817.979 1711.065 754.887 1725.098 690.2 1737.3310000000001 633.809 1708.4769999999999 579.147 1708.157 521.445 1707.766 450.947 1762.08 373.451 1723.016 314.765 1684.839 257.412 1598.557 259.872 1529.937 253.704 1471.015 248.40800000000002 1416.717 272.224 1358.369 281.99 1290.277 293.387 1209.658 269.766 1158.3020000000001 315.90700000000004 1106.845 362.139 1113.693 443.205 1102.885 511.53 1091.9180000000001 580.857 1069.6109999999999 652.138 1094.747 717.672 1120.471 784.738 1180.652 830.706 1240.527 870.387 1301.074 910.5129999999999 1367.38 947.986 1440 946.482" fill="#171f2a"></path></g><defs><mask id="SvgjsMask1070"><rect width="1440" height="560" fill="#ffffff"></rect></mask></defs></svg>